<svg width="24" height="24" viewBox="0 0 24 24" fill="none" xmlns="http://www.w3.org/2000/svg">
<rect width="24" height="24" fill="#F5F5F5"/>
<g id="Liquidity-lock">
<rect width="1440" height="1126" transform="translate(-1159 -213)" fill="#081120"/>
<rect id="Rectangle 501" x="-1099" y="-38" width="1320" height="173" rx="10" fill="#1D2738"/>
<rect id="Rectangle 5341" x="-103.5" y="-17.5" width="304" height="132" rx="7.5" fill="#2B374A" stroke="#435470"/>
<g id="Group 78">
<circle id="Ellipse 67" cx="12" cy="12" r="11.5833" fill="url(#paint0_linear_116_69)" stroke="url(#paint1_linear_116_69)" stroke-width="0.833333"/>
<circle id="Ellipse 68" cx="12.0001" cy="11.9999" r="9.18333" stroke="url(#paint2_linear_116_69)" stroke-width="0.833333"/>
<g id="Union" filter="url(#filter0_d_116_69)">
<path fill-rule="evenodd" clip-rule="evenodd" d="M12.7218 6.04997C12.4011 5.49441 11.5992 5.49441 11.2784 6.04997L9.92143 8.40036L7.20814 8.40036C6.56664 8.40036 6.1657 9.0948 6.48645 9.65036L7.8431 12.0001L6.48642 14.35C6.16567 14.9055 6.56661 15.6 7.20811 15.6H9.92146L11.2785 17.9504C11.5992 18.5059 12.4011 18.5059 12.7218 17.9504L14.0788 15.6H16.7921C17.4336 15.6 17.8346 14.9055 17.5138 14.35L16.1572 12.0002L17.5138 9.65036C17.8346 9.0948 17.4337 8.40036 16.7922 8.40036L14.0788 8.40036L12.7218 6.04997Z" fill="white"/>
</g>
</g>
</g>
<defs>
<filter id="filter0_d_116_69" x="3.0402" y="2.29997" width="17.9198" height="19.4006" filterUnits="userSpaceOnUse" color-interpolation-filters="sRGB">
<feFlood flood-opacity="0" result="BackgroundImageFix"/>
<feColorMatrix in="SourceAlpha" type="matrix" values="0 0 0 0 0 0 0 0 0 0 0 0 0 0 0 0 0 0 127 0" result="hardAlpha"/>
<feOffset/>
<feGaussianBlur stdDeviation="1.66667"/>
<feComposite in2="hardAlpha" operator="out"/>
<feColorMatrix type="matrix" values="0 0 0 0 1 0 0 0 0 0.681569 0 0 0 0 0.45098 0 0 0 1 0"/>
<feBlend mode="normal" in2="BackgroundImageFix" result="effect1_dropShadow_116_69"/>
<feBlend mode="normal" in="SourceGraphic" in2="effect1_dropShadow_116_69" result="shape"/>
</filter>
<linearGradient id="paint0_linear_116_69" x1="12" y1="0" x2="12" y2="24" gradientUnits="userSpaceOnUse">
<stop stop-color="#FFB864"/>
<stop offset="1" stop-color="#FFCF73"/>
</linearGradient>
<linearGradient id="paint1_linear_116_69" x1="12" y1="0" x2="12" y2="24" gradientUnits="userSpaceOnUse">
<stop stop-color="#FFF1A6"/>
<stop offset="1" stop-color="#FFA44F"/>
</linearGradient>
<linearGradient id="paint2_linear_116_69" x1="12.0001" y1="2.3999" x2="12.0001" y2="21.5999" gradientUnits="userSpaceOnUse">
<stop stop-color="#FFA44F"/>
<stop offset="1" stop-color="#FFF1A6"/>
</linearGradient>
</defs>
</svg>
