<svg width="120" height="120" viewBox="0 0 120 120" fill="none" xmlns="http://www.w3.org/2000/svg">
<g id="Group 18">
<rect id="Rectangle 509" width="120" height="120" rx="60" fill="#F74141"/>
<path id="Vector" d="M99.0857 22.6355C90.6323 22.6355 82.4059 22.6457 74.176 22.6287C72.133 22.6253 70.5507 23.3984 69.3242 25.0537C65.6921 29.9616 62.0228 34.8389 58.3669 39.7298C56.6627 42.0151 54.9585 44.2971 53.2305 46.6131C53.0475 46.3815 52.9052 46.2078 52.7697 46.0273C49.3883 41.4974 45.9799 36.988 42.6391 32.4309C41.5244 30.9119 40.1726 30.1864 38.2718 30.2068C32.8304 30.2715 27.3891 30.2307 21.9511 30.2307H20.9143C21.1887 30.6053 21.3615 30.8506 21.5411 31.0924C28.5986 40.4961 35.6528 49.9032 42.7306 59.2899C43.1406 59.8383 43.1609 60.1687 42.7408 60.7306C35.6866 70.1378 28.6562 79.5654 21.6224 88.9861C21.4632 89.2041 21.3141 89.4289 21.0735 89.7729H22.1103C27.5483 89.7729 32.9897 89.749 38.4277 89.7899C40.1556 89.8001 41.4465 89.1598 42.4697 87.7736C45.8816 83.1586 49.324 78.5708 52.7562 73.9728C52.8985 73.7855 53.0611 73.6118 53.2407 73.3972C53.427 73.6357 53.5693 73.8094 53.7048 73.9865C58.8921 80.9413 64.0929 87.8894 69.2565 94.8579C70.5202 96.5609 72.1262 97.3783 74.237 97.3715C81.9891 97.3442 89.7412 97.3613 97.4933 97.3613H98.9163C89.5549 84.8241 80.3018 72.4334 71.0318 60.0222C80.3764 47.5736 89.687 35.1658 99.0857 22.6355ZM85.977 90.5699C86.0583 90.6789 86.143 90.7844 86.3429 91.0399C82.3347 91.0399 78.5061 91.0501 74.6775 91.0126C74.3963 91.0092 74.0507 90.6891 73.8508 90.4268C69.4936 84.6163 65.15 78.7956 60.8064 72.9749C57.7164 68.8299 54.6264 64.6815 51.5364 60.5331C51.4043 60.3526 51.2789 60.1687 51.1332 59.9575C53.4609 56.8411 55.7716 53.7383 58.0857 50.6389C63.3272 43.6227 68.5788 36.61 73.8067 29.5801C74.1693 29.0931 74.5352 28.9194 75.1315 28.9228C78.8449 28.9501 82.5583 28.9364 86.4073 28.9364C86.2141 29.2327 86.0956 29.4405 85.9533 29.6312C78.5434 39.5084 71.1369 49.3924 63.7067 59.2559C63.2831 59.8179 63.2526 60.1687 63.6931 60.7579C71.1369 70.6827 78.5535 80.628 85.977 90.5699Z" fill="white"/>
</g>
</svg>
